<svg width="315" height="217" viewBox="0 0 315 217" fill="none" xmlns="http://www.w3.org/2000/svg">
<g clip-path="url(#clip0_2_1701)">
<path d="M244.077 36.0696L244.077 36.0696C255.73 35.4965 267.111 39.7219 275.556 47.7538C284 55.7856 288.779 66.9289 288.779 78.5772V169.923C288.779 181.615 283.956 192.804 275.442 200.848C266.931 208.891 255.483 213.072 243.785 212.42C228.215 211.547 210.006 210.525 190.678 209.441C140.738 206.64 83.3357 203.421 44.727 201.254C22.1512 199.984 4.5 181.331 4.5 158.757V88.3404C4.5 65.6526 22.3203 46.9452 45.0178 45.8328L45.0179 45.8328C56.3613 45.2765 69.3107 44.6416 83.2063 43.9602C135.093 41.4161 200.171 38.2251 244.077 36.0696Z" fill="#FD870B" stroke="white" stroke-width="9"/>
<path fill-rule="evenodd" clip-rule="evenodd" d="M231.274 148.199C239.703 144.758 246.069 144.646 255.034 144.957C260.455 145.143 266.062 145.528 271.483 145.354C273.622 145.28 277.066 144.124 279.018 145.503C282.064 147.652 281.977 151.602 281.877 154.943C281.703 161.303 281.318 167.625 280.485 173.948C280.05 177.227 279.192 181.289 276.369 183.363C271.744 186.754 266.137 186.307 260.716 186.456C254.872 186.618 248.133 187.114 242.588 184.68C229.62 178.966 229.185 158.558 230.863 147.292" fill="white"/>
<path fill-rule="evenodd" clip-rule="evenodd" d="M230.988 145.528C231.485 141.193 230.378 137.454 229.744 133.231C229.098 128.883 229.719 124.573 228.215 120.337C223.366 106.662 212.686 95.8054 206.108 83.0487C201.011 73.1489 198.449 60.032 198.81 48.9895C198.972 43.8347 200.178 37.3259 203.56 33.2269C205.835 30.4693 209.055 28.5689 211.542 26.0101C216.092 21.3273 220.693 16.868 226.425 13.6261C239.766 6.08634 256.849 6.49625 271.259 9.47736C278.62 10.9928 286.739 13.1789 292.695 18.048C309.156 31.5003 309.194 49.1882 307.117 68.2922C306.334 75.509 305.091 83.5828 302.306 90.34C298.973 98.4387 293.975 105.68 290.171 113.531C287.659 118.71 286.142 123.977 284.551 129.467C283.68 132.448 282.835 136.46 280.323 138.572C274.33 143.59 264.259 142.124 257.123 142.621C250.409 143.081 244.03 144.857 237.279 144.472" fill="#F1CE30"/>
<path fill-rule="evenodd" clip-rule="evenodd" d="M275.139 45.2756L275.039 45.4247C271.993 50.6416 271.172 57.2249 270.551 63.2368C271.371 61.7835 272.055 60.3302 272.59 58.9639C274.181 54.8027 275.549 49.7845 275.139 45.2756ZM234.68 50.2193C233.972 51.4987 234.059 53.2252 234.183 54.6413C234.618 59.5725 236.645 64.4913 240.313 67.8699L240.698 68.2177L240.425 66.5781C240.126 64.8267 239.766 63.0877 239.33 61.3612C238.933 59.7464 238.957 59.8085 238.435 58.1937C238.162 57.3615 237.789 56.2063 237.453 55.3865C237.018 54.2935 236.234 52.4427 235.178 50.8652C235.066 50.6789 234.879 50.4429 234.68 50.2193ZM259.883 137.938C259.746 126.523 260.343 121.468 259.945 108.5C259.709 100.699 259.448 92.8367 259.485 84.9741C258.13 85.297 256.737 85.4709 255.345 85.4709C254.449 85.4833 253.542 85.4088 252.609 85.2597C252.92 89.4333 253.169 93.6068 253.417 97.768C254.201 111.009 255.071 124.946 252.622 138.15C253.069 138.15 253.504 138.137 253.952 138.137C255.966 138.112 257.931 138.038 259.883 137.938ZM277.638 137.044C277.762 122.561 284.563 109.854 292.135 97.768C295.604 92.2405 303.362 80.9247 304.767 65.5844C306.52 46.4556 300.764 25.9481 283.867 16.7563C280.945 15.1664 273.199 10.7196 258.217 9.98671C242.998 9.25385 229.583 14.2721 224.982 16.9923C208.409 26.8051 203.647 47.4866 205.3 65.5099C206.693 80.7632 215.446 91.6567 219.089 97.0227C227.519 109.432 235.128 122.573 235.078 138.025V138.137C237.577 138.162 240.027 138.187 242.488 138.187C245.286 125.244 244.279 111.419 243.508 98.3394C243.172 92.7125 242.849 87.0608 242.339 81.434C238.995 79.5708 235.924 77.3101 233.599 75.1612C228.115 70.1182 224.933 62.8393 224.298 55.4859C223.901 50.8776 224.995 45.3998 228.6 42.0833C230.764 40.0959 232.94 39.4997 234.929 39.5742C236.856 39.6488 238.734 40.4065 240.425 41.8101C243.359 44.2571 245.758 49.2132 246.753 51.7098C247.151 52.7035 247.623 54.1196 247.947 55.1257C248.581 57.0758 248.544 57.0013 249.028 58.9514C249.513 60.914 249.924 62.889 250.272 64.8764C250.844 68.2177 251.304 71.5715 251.689 74.9377C252.908 75.3103 254.126 75.5215 255.295 75.5215C256.849 75.509 258.341 75.0867 259.758 74.4035C259.92 70.8635 260.156 67.3482 260.517 63.833C261.313 56.0573 262.469 47.2879 266.472 40.4189C267.492 38.6675 269.295 36.3199 271.371 35.028C273.709 33.5747 276.332 33.1648 279.03 34.3449C282.76 35.9721 284.675 40.5058 285.036 44.1453C285.632 50.1696 284.016 56.9268 281.89 62.5039C279.677 68.2923 275.213 75.1861 269.568 79.7944L269.506 79.8441C269.295 89.2967 269.631 98.799 269.904 108.189C270.29 121.045 269.718 126.138 269.83 137.342C272.403 137.206 275.002 137.094 277.638 137.044ZM277.861 146.981C269.854 147.081 262.245 147.962 254.089 148.074C247.425 148.161 241.282 148.161 234.829 148.087C234.842 150.347 234.904 153.204 235.004 156.334L277.824 149.875C277.837 149.316 277.849 148.82 277.849 148.397L277.861 146.981ZM277.389 159.986L235.389 166.321C235.476 168.296 235.563 170.246 235.663 172.097L277.053 166.259C277.165 164.147 277.277 162.023 277.389 159.986ZM276.457 176.382L252.373 179.786L276.27 179.426C276.332 178.494 276.394 177.475 276.457 176.382ZM225.119 138.001H224.908L224.734 147.938H224.87C224.883 150.596 224.97 154.074 225.094 157.837L218.977 158.757L220.469 168.582L225.504 167.824C225.591 169.787 225.679 171.7 225.766 173.501L220.73 174.209L222.123 184.046L226.288 183.462C226.35 184.667 226.387 185.351 226.387 185.351L226.661 190.108L285.607 189.214L285.906 184.63C285.906 184.63 286.167 180.494 286.503 174.954L294.149 173.873L292.757 164.036L287.087 164.843C287.211 162.669 287.323 160.508 287.423 158.471L295.144 157.303L293.652 147.478L287.796 148.36L287.833 143.503H287.783L287.597 138.945C287.062 125.554 293.639 114.077 300.552 103.059C304.481 96.7991 313.073 83.881 314.664 66.5036C316.766 43.4621 308.97 19.1164 288.604 8.04899C285.185 6.19821 276.171 0.931585 258.677 0.0869374C240.897 -0.782553 225.268 5.29146 219.897 8.47131C199.979 20.2715 193.389 44.7788 195.378 66.4415C196.982 83.8934 206.668 96.4886 210.845 102.625C218.156 113.369 225.169 124.598 225.119 138.001Z" fill="#355DFA"/>
<g clip-path="url(#clip1_2_1701)">
<path d="M177.409 116.419C171.757 96.9995 165.383 86.9657 165.28 86.7857C164.917 86.3423 155.91 75.5636 134.201 67.5911L131.333 75.4011C141.66 79.194 148.987 83.8212 153.016 86.811C140.986 83.2186 126.675 81.0184 114 81.0184C101.325 81.0184 87.0136 83.2186 74.9836 86.811C79.0128 83.8215 86.3397 79.194 96.6671 75.4011L93.7986 67.5911C72.0906 75.5636 63.0836 86.3423 62.7202 86.7857C62.6174 86.9657 56.2432 96.9995 50.5915 116.419C45.1444 135.133 43.0752 161.533 43 162.591C43.4854 163.35 54.6484 182.409 85.0711 182.409L92.7824 171.243C84.1431 168.949 75.9052 165.25 68.3642 160.23L72.9745 153.304C85.1402 161.401 99.3266 165.682 114 165.682C128.673 165.682 142.86 161.401 155.026 153.304L159.636 160.23C152.095 165.25 143.857 168.949 135.218 171.243L142.929 182.409C173.352 182.409 184.515 163.35 185 162.591C184.925 161.533 182.856 135.133 177.409 116.419ZM94.764 138.185H86.4437V124.318H94.764V138.185ZM141.556 138.185H133.236V124.318H141.556V138.185Z" fill="white"/>
</g>
</g>
<defs>
<clipPath id="clip0_2_1701">
<rect width="315" height="217" fill="white"/>
</clipPath>
<clipPath id="clip1_2_1701">
<rect width="142" height="142" fill="white" transform="translate(43 54)"/>
</clipPath>
</defs>
</svg>
