<svg width="164" height="164" viewBox="0 0 164 164" fill="none" xmlns="http://www.w3.org/2000/svg">
<g clip-path="url(#clip0_2_1837)">
<path d="M164 31.1498C157.901 33.825 151.403 35.5982 144.628 36.4592C151.598 32.2977 156.917 25.7582 159.418 17.876C152.92 21.7505 145.745 24.4873 138.098 26.0145C131.928 19.4443 123.133 15.375 113.539 15.375C94.9252 15.375 79.9398 30.4835 79.9398 49.0053C79.9398 51.6702 80.1653 54.2327 80.7188 56.6722C52.767 55.309 28.0338 41.9123 11.4185 21.5045C8.51775 26.5373 6.81625 32.2978 6.81625 38.499C6.81625 50.143 12.8125 60.4647 21.7505 66.4405C16.3487 66.338 11.0495 64.7698 6.56 62.2995C6.56 62.402 6.56 62.5352 6.56 62.6685C6.56 79.007 18.2142 92.578 33.497 95.7042C30.7602 96.4525 27.7775 96.8112 24.682 96.8112C22.5295 96.8112 20.3565 96.6882 18.3167 96.2373C22.673 109.552 35.0345 119.341 49.733 119.659C38.294 128.607 23.7698 133.998 8.04625 133.998C5.289 133.998 2.6445 133.875 0 133.537C14.8932 143.141 32.5438 148.625 51.578 148.625C113.447 148.625 147.272 97.375 147.272 52.9515C147.272 51.4652 147.221 50.0303 147.149 48.6055C153.822 43.87 159.428 37.9557 164 31.1498Z" fill="white"/>
</g>
<defs>
<clipPath id="clip0_2_1837">
<rect width="164" height="164" fill="white"/>
</clipPath>
</defs>
</svg>
