<svg width="57" height="57" viewBox="0 0 57 57" fill="none" xmlns="http://www.w3.org/2000/svg">
<g filter="url(#filter0_d_2_2001)">
<circle cx="28.5" cy="28.5" r="24.5" fill="white"/>
</g>
<path d="M25.8401 23.6808L27.9687 21.5522V32.8125C27.9687 33.086 28.0774 33.3483 28.2708 33.5417C28.4642 33.7351 28.7265 33.8438 29 33.8438C29.2735 33.8438 29.5358 33.7351 29.7292 33.5417C29.9226 33.3483 30.0312 33.086 30.0312 32.8125V21.5522L32.1599 23.6808C32.2555 23.777 32.3692 23.8534 32.4945 23.9055C32.6197 23.9577 32.754 23.9847 32.8896 23.9848C33.0253 23.985 33.1597 23.9584 33.285 23.9066C33.4104 23.8548 33.5243 23.7787 33.6203 23.6828C33.7162 23.5869 33.7922 23.473 33.8441 23.3476C33.8959 23.2222 33.9225 23.0879 33.9223 22.9522C33.9221 22.8165 33.8952 22.6822 33.843 22.557C33.7908 22.4318 33.7145 22.3181 33.6183 22.2224L29.7292 18.3333C29.6335 18.2375 29.5198 18.1616 29.3946 18.1098C29.2695 18.0579 29.1354 18.0312 29 18.0312C28.8646 18.0312 28.7305 18.0579 28.6053 18.1098C28.4802 18.1616 28.3665 18.2375 28.2708 18.3333L24.3817 22.2224C24.2855 22.3181 24.2092 22.4318 24.157 22.557C24.1048 22.6822 24.0779 22.8165 24.0777 22.9522C24.0775 23.0879 24.1041 23.2222 24.1559 23.3476C24.2077 23.473 24.2838 23.5869 24.3797 23.6828C24.4757 23.7787 24.5896 23.8548 24.7149 23.9066C24.8403 23.9584 24.9747 23.985 25.1103 23.9848C25.246 23.9847 25.3803 23.9577 25.5055 23.9055C25.6307 23.8534 25.7444 23.777 25.8401 23.6808Z" fill="black"/>
<path d="M37.9375 26.9687C37.664 26.9687 37.4017 27.0773 37.2083 27.2707C37.0149 27.4641 36.9062 27.7264 36.9062 27.9999V35.9062H21.0938V27.9999C21.0938 27.7264 20.9851 27.4641 20.7917 27.2707C20.5983 27.0773 20.336 26.9687 20.0625 26.9687C19.789 26.9687 19.5267 27.0773 19.3333 27.2707C19.1399 27.4641 19.0312 27.7264 19.0312 27.9999V36.2499C19.0312 36.7058 19.2123 37.143 19.5347 37.4653C19.857 37.7876 20.2942 37.9687 20.75 37.9687H37.25C37.7058 37.9687 38.143 37.7876 38.4653 37.4653C38.7877 37.143 38.9688 36.7058 38.9688 36.2499V27.9999C38.9688 27.7264 38.8601 27.4641 38.6667 27.2707C38.4733 27.0773 38.211 26.9687 37.9375 26.9687Z" fill="black"/>
<defs>
<filter id="filter0_d_2_2001" x="0" y="0" width="57" height="57" filterUnits="userSpaceOnUse" color-interpolation-filters="sRGB">
<feFlood flood-opacity="0" result="BackgroundImageFix"/>
<feColorMatrix in="SourceAlpha" type="matrix" values="0 0 0 0 0 0 0 0 0 0 0 0 0 0 0 0 0 0 127 0" result="hardAlpha"/>
<feOffset/>
<feGaussianBlur stdDeviation="2"/>
<feColorMatrix type="matrix" values="0 0 0 0 0 0 0 0 0 0 0 0 0 0 0 0 0 0 0.25 0"/>
<feBlend mode="normal" in2="BackgroundImageFix" result="effect1_dropShadow_2_2001"/>
<feBlend mode="normal" in="SourceGraphic" in2="effect1_dropShadow_2_2001" result="shape"/>
</filter>
</defs>
</svg>
